M48
;Layer_Color=9474304
;FILE_FORMAT=4:4
METRIC,LZ
;TYPE=PLATED
T1F00S00C0.9000
T2F00S00C1.3000
%
T01
X0007517Y000254
X0010057
X0012597
X0015137
X0017677
X0020217
X0022757
X0025297
X0027837
X0030377
X0032917
X0035457
X0037997
X0040537
X0043077
X0045617
X00493Y0012319
Y0022479
X0036102Y0015748
X0032536Y0011938
Y0009398
Y0007112
X0037402Y0009398
X0042402
X0025297Y0007112
X0020052Y0009398
X0015052
X001374Y0015748
X0003704Y0012323
Y0022483
T02
X0007452Y0018419
X0010602
X0013752
X0016902
X0020052
X0023202
X0029802Y0018415
X0032952
X0036102
X0039252
X0042402
X0045552
X0043977Y0023745
X0040827
X0037677
X0034527
X0031377
X0021627Y0023749
X0018477
X0015327
X0012177
X0009027
M30
