G04*
G04 #@! TF.GenerationSoftware,Altium Limited,Altium Designer,19.0.5 (141)*
G04*
G04 Layer_Physical_Order=1*
G04 Layer_Color=255*
%FSLAX44Y44*%
%MOMM*%
G71*
G01*
G75*
%ADD10C,1.0000*%
%ADD11C,1.7000*%
%ADD12R,1.7000X1.7000*%
%ADD13R,2.5000X2.5000*%
%ADD14C,2.5000*%
%ADD15R,1.5000X1.5000*%
%ADD16C,1.5000*%
G36*
X175692Y253670D02*
Y251347D01*
X175559Y251276D01*
X173046Y249214D01*
X170984Y246701D01*
X169718Y244332D01*
X168322D01*
X167056Y246701D01*
X164994Y249214D01*
X162481Y251276D01*
X159615Y252808D01*
X156505Y253751D01*
X153270Y254070D01*
X150035Y253751D01*
X146925Y252808D01*
X144059Y251276D01*
X141546Y249214D01*
X139484Y246701D01*
X138218Y244332D01*
X136822D01*
X135556Y246701D01*
X133494Y249214D01*
X130981Y251276D01*
X130848Y251347D01*
Y253120D01*
X130538Y255470D01*
X129632Y257659D01*
X128189Y259539D01*
X122389Y265339D01*
X122875Y266512D01*
X162850D01*
X175692Y253670D01*
D02*
G37*
G36*
X349165Y266512D02*
X340187Y257535D01*
X338745Y255655D01*
X337838Y253465D01*
X337657Y252090D01*
X336059Y251236D01*
X333546Y249174D01*
X331484Y246661D01*
X330218Y244292D01*
X328822D01*
X327556Y246661D01*
X325494Y249174D01*
X322981Y251236D01*
X322848Y251307D01*
Y264050D01*
X326580Y267782D01*
X348802D01*
X349165Y266512D01*
D02*
G37*
G36*
X483923Y243890D02*
Y233493D01*
X482081Y231094D01*
X480822Y228053D01*
X480392Y224790D01*
X480822Y221527D01*
X482081Y218486D01*
X484085Y215875D01*
X486696Y213871D01*
X489737Y212612D01*
X493000Y212182D01*
X496263Y212612D01*
X499162Y213813D01*
X500221Y213419D01*
X500433Y213315D01*
Y198808D01*
X499162Y198445D01*
X481639Y215969D01*
X479759Y217411D01*
X477570Y218318D01*
X475220Y218628D01*
X431990D01*
X422168Y228450D01*
X423322Y230608D01*
X424718D01*
X425984Y228239D01*
X428046Y225726D01*
X430559Y223664D01*
X433425Y222132D01*
X436535Y221189D01*
X439770Y220870D01*
X443005Y221189D01*
X446115Y222132D01*
X448981Y223664D01*
X451494Y225726D01*
X453556Y228239D01*
X455088Y231105D01*
X456031Y234216D01*
X456350Y237450D01*
X456031Y240685D01*
X455088Y243795D01*
X453556Y246661D01*
X451494Y249174D01*
X450484Y250002D01*
X450938Y251272D01*
X476540D01*
X483923Y243890D01*
D02*
G37*
G36*
X44163Y213532D02*
X44503Y213365D01*
Y191145D01*
X43232Y190825D01*
X29638Y204420D01*
Y213350D01*
X30908Y213840D01*
X33777Y212652D01*
X37040Y212222D01*
X40303Y212652D01*
X43232Y213865D01*
X44163Y213532D01*
D02*
G37*
G36*
X92234Y174979D02*
X94296Y172466D01*
X96809Y170404D01*
X96942Y170333D01*
Y108850D01*
X97252Y106501D01*
X98159Y104311D01*
X99601Y102431D01*
X167693Y34340D01*
Y34103D01*
X165851Y31704D01*
X164722Y28977D01*
X164720Y28977D01*
X163420D01*
X163418Y28977D01*
X162289Y31704D01*
X160285Y34315D01*
X157674Y36319D01*
X154633Y37578D01*
X151370Y38008D01*
X148107Y37578D01*
X145066Y36319D01*
X142455Y34315D01*
X140451Y31704D01*
X139322Y28977D01*
X139320Y28977D01*
X138020D01*
X138018Y28977D01*
X136889Y31704D01*
X134885Y34315D01*
X132274Y36319D01*
X129233Y37578D01*
X125970Y38008D01*
X122707Y37578D01*
X119666Y36319D01*
X117055Y34315D01*
X115051Y31704D01*
X113922Y28977D01*
X113920Y28977D01*
X112620D01*
X112618Y28977D01*
X111489Y31704D01*
X109485Y34315D01*
X108998Y34689D01*
Y79390D01*
X108688Y81740D01*
X107781Y83929D01*
X106339Y85809D01*
X62658Y129490D01*
Y170937D01*
X63928Y171538D01*
X65309Y170404D01*
X68175Y168872D01*
X71286Y167929D01*
X74520Y167610D01*
X77755Y167929D01*
X80865Y168872D01*
X83731Y170404D01*
X86244Y172466D01*
X88306Y174979D01*
X89572Y177348D01*
X90968D01*
X92234Y174979D01*
D02*
G37*
G36*
X315734Y174939D02*
X315859Y174787D01*
X291001Y149929D01*
X289559Y148049D01*
X288652Y145859D01*
X288342Y143510D01*
Y64770D01*
X288652Y62421D01*
X289559Y60231D01*
X291001Y58351D01*
X301161Y48191D01*
X301161Y48191D01*
X303041Y46749D01*
X305231Y45842D01*
X307580Y45532D01*
X339380D01*
X345493Y39420D01*
Y34103D01*
X343651Y31704D01*
X342522Y28977D01*
X342520Y28977D01*
X341220D01*
X341218Y28977D01*
X340089Y31704D01*
X338085Y34315D01*
X335474Y36319D01*
X332433Y37578D01*
X329170Y38008D01*
X325907Y37578D01*
X322866Y36319D01*
X320255Y34315D01*
X318251Y31704D01*
X317122Y28977D01*
X317120Y28977D01*
X315820D01*
X315818Y28977D01*
X314689Y31704D01*
X312685Y34315D01*
X310074Y36319D01*
X307033Y37578D01*
X303770Y38008D01*
X300507Y37578D01*
X297466Y36319D01*
X294855Y34315D01*
X292851Y31704D01*
X291722Y28977D01*
X291720Y28977D01*
X290420D01*
X290418Y28977D01*
X289289Y31704D01*
X287285Y34315D01*
X284908Y36140D01*
Y172234D01*
X286103Y172661D01*
X286296Y172426D01*
X288809Y170364D01*
X291675Y168832D01*
X294785Y167889D01*
X298020Y167570D01*
X301255Y167889D01*
X304365Y168832D01*
X307231Y170364D01*
X309744Y172426D01*
X311806Y174939D01*
X313072Y177308D01*
X314468D01*
X315734Y174939D01*
D02*
G37*
G36*
X410234D02*
X412296Y172426D01*
X414809Y170364D01*
X417675Y168832D01*
X420785Y167889D01*
X424020Y167570D01*
X427255Y167889D01*
X430365Y168832D01*
X433231Y170364D01*
X435744Y172426D01*
X437750Y174871D01*
X437849Y174873D01*
X439020Y174137D01*
Y167650D01*
X446442D01*
Y161860D01*
X440980Y156398D01*
X405320D01*
X401598Y160120D01*
Y170293D01*
X401731Y170364D01*
X404244Y172426D01*
X406306Y174939D01*
X407572Y177308D01*
X408968D01*
X410234Y174939D01*
D02*
G37*
G36*
X123196Y179597D02*
X123558Y178407D01*
X124954Y175794D01*
X126834Y173504D01*
X129124Y171624D01*
X131737Y170228D01*
X134283Y169455D01*
X134398Y168859D01*
X134358Y168261D01*
X134339Y168162D01*
X131833Y167124D01*
X129526Y165354D01*
X127757Y163048D01*
X127107Y161480D01*
X147693D01*
X147044Y163048D01*
X145274Y165354D01*
X142968Y167124D01*
X140597Y168106D01*
X140513Y168927D01*
X140605Y169409D01*
X143303Y170228D01*
X145916Y171624D01*
X148206Y173504D01*
X150086Y175794D01*
X151482Y178407D01*
X151844Y179597D01*
X153171D01*
X153702Y177845D01*
X155234Y174979D01*
X157296Y172466D01*
X159809Y170404D01*
X159942Y170333D01*
Y125480D01*
X160252Y123131D01*
X161159Y120941D01*
X162601Y119061D01*
X187947Y93715D01*
X188342Y90717D01*
X189601Y87676D01*
X191605Y85065D01*
X194216Y83061D01*
X197257Y81802D01*
X200520Y81372D01*
X203783Y81802D01*
X206824Y83061D01*
X209435Y85065D01*
X211439Y87676D01*
X212698Y90717D01*
X213128Y93980D01*
X212698Y97243D01*
X211439Y100284D01*
X209435Y102895D01*
X206824Y104899D01*
X203783Y106158D01*
X200785Y106553D01*
X178098Y129240D01*
Y170333D01*
X178231Y170404D01*
X180744Y172466D01*
X182806Y174979D01*
X184072Y177348D01*
X185468D01*
X186734Y174979D01*
X188796Y172466D01*
X191309Y170404D01*
X191442Y170333D01*
Y159130D01*
X191752Y156781D01*
X192659Y154591D01*
X194101Y152711D01*
X217842Y128970D01*
Y33256D01*
X216651Y31704D01*
X215522Y28977D01*
X215520Y28977D01*
X214220D01*
X214218Y28977D01*
X213089Y31704D01*
X211085Y34315D01*
X208474Y36319D01*
X205433Y37578D01*
X202170Y38008D01*
X198907Y37578D01*
X195866Y36319D01*
X193255Y34315D01*
X191251Y31704D01*
X190122Y28977D01*
X190120Y28977D01*
X188820D01*
X188818Y28977D01*
X187689Y31704D01*
X185848Y34103D01*
Y38100D01*
X185538Y40450D01*
X184632Y42639D01*
X183189Y44519D01*
X144600Y83108D01*
X145319Y84185D01*
X146520Y83687D01*
Y89980D01*
X140227D01*
X140725Y88779D01*
X139648Y88060D01*
X115098Y112610D01*
Y170333D01*
X115231Y170404D01*
X117744Y172466D01*
X119806Y174979D01*
X121338Y177845D01*
X121869Y179597D01*
X123196Y179597D01*
D02*
G37*
G36*
X500221Y111819D02*
X500433Y111715D01*
Y106630D01*
X476249Y82447D01*
X467309D01*
X467309Y82447D01*
X466827Y82383D01*
X466234Y83586D01*
X493265Y110617D01*
X496263Y111012D01*
X499162Y112213D01*
X500221Y111819D01*
D02*
G37*
G36*
X346697Y179557D02*
X347058Y178367D01*
X348454Y175754D01*
X350334Y173464D01*
X352624Y171584D01*
X355237Y170188D01*
X357803Y169409D01*
X357875Y168255D01*
X357849Y168116D01*
X355452Y167124D01*
X353146Y165354D01*
X351377Y163048D01*
X350727Y161480D01*
X371313D01*
X370663Y163048D01*
X368894Y165354D01*
X366588Y167124D01*
X364191Y168116D01*
X364165Y168255D01*
X364237Y169409D01*
X366804Y170188D01*
X369416Y171584D01*
X371706Y173464D01*
X373586Y175754D01*
X374982Y178367D01*
X375344Y179557D01*
X376671D01*
X377202Y177805D01*
X378734Y174939D01*
X380796Y172426D01*
X383309Y170364D01*
X383442Y170293D01*
Y156360D01*
X383752Y154011D01*
X384659Y151821D01*
X386101Y149941D01*
X395141Y140901D01*
X397021Y139459D01*
X399211Y138552D01*
X401560Y138242D01*
X444740D01*
X445488Y138341D01*
X446442Y137503D01*
Y129240D01*
X423755Y106553D01*
X420757Y106158D01*
X417716Y104899D01*
X415105Y102895D01*
X413101Y100284D01*
X411842Y97243D01*
X411447Y94245D01*
X397400Y80198D01*
X334063D01*
X331664Y82039D01*
X330140Y82670D01*
X330393Y83940D01*
X335400D01*
Y89980D01*
X325360D01*
X315320D01*
Y83940D01*
X320328D01*
X320580Y82670D01*
X319056Y82039D01*
X316445Y80035D01*
X314441Y77424D01*
X313182Y74383D01*
X312752Y71120D01*
X313182Y67857D01*
X314383Y64958D01*
X313989Y63899D01*
X313885Y63688D01*
X311340D01*
X306498Y68530D01*
Y139750D01*
X334121Y167373D01*
X335051Y168585D01*
X335865Y168832D01*
X338731Y170364D01*
X341244Y172426D01*
X343306Y174939D01*
X344838Y177805D01*
X345369Y179557D01*
X346697Y179557D01*
D02*
G37*
G36*
X266752Y70311D02*
Y30017D01*
X266322Y28977D01*
X266320Y28977D01*
X265020D01*
X265018Y28977D01*
X263889Y31704D01*
X262048Y34103D01*
Y62417D01*
X263889Y64816D01*
X265148Y67857D01*
X265483Y70395D01*
X266752Y70311D01*
D02*
G37*
G36*
X215520Y174177D02*
Y167690D01*
X222942D01*
Y163190D01*
X223252Y160841D01*
X224159Y158651D01*
X225601Y156771D01*
X243892Y138480D01*
Y79823D01*
X242051Y77424D01*
X240792Y74383D01*
X240362Y71120D01*
X240792Y67857D01*
X242051Y64816D01*
X243892Y62417D01*
Y34103D01*
X242051Y31704D01*
X240922Y28977D01*
X240920Y28977D01*
X239620D01*
X239618Y28977D01*
X238489Y31704D01*
X236485Y34315D01*
X235998Y34689D01*
Y132730D01*
X235688Y135080D01*
X234781Y137269D01*
X233339Y139149D01*
X209598Y162890D01*
Y170333D01*
X209731Y170404D01*
X212244Y172466D01*
X214250Y174911D01*
X214349Y174913D01*
X215520Y174177D01*
D02*
G37*
G36*
X483923Y188010D02*
Y131893D01*
X482081Y129494D01*
X480822Y126453D01*
X480427Y123455D01*
X398301Y41329D01*
X396859Y39449D01*
X395952Y37260D01*
X395642Y34910D01*
Y33256D01*
X394451Y31704D01*
X393322Y28977D01*
X393320Y28977D01*
X392020D01*
X392018Y28977D01*
X390889Y31704D01*
X388885Y34315D01*
X386274Y36319D01*
X383233Y37578D01*
X379970Y38008D01*
X376707Y37578D01*
X373666Y36319D01*
X371055Y34315D01*
X369051Y31704D01*
X367922Y28977D01*
X367920Y28977D01*
X366620D01*
X366618Y28977D01*
X365489Y31704D01*
X363648Y34103D01*
Y43180D01*
X363338Y45529D01*
X362432Y47719D01*
X360989Y49599D01*
X349815Y60772D01*
X350178Y62042D01*
X401160D01*
X403509Y62352D01*
X405699Y63259D01*
X407579Y64701D01*
X424285Y81407D01*
X427283Y81802D01*
X430324Y83061D01*
X432935Y85065D01*
X434939Y87676D01*
X436198Y90717D01*
X436593Y93715D01*
X461939Y119061D01*
X463382Y120941D01*
X464288Y123131D01*
X464598Y125480D01*
Y158100D01*
Y167650D01*
X472020D01*
Y198253D01*
X473193Y198739D01*
X483923Y188010D01*
D02*
G37*
G36*
X90842Y75630D02*
Y33256D01*
X89651Y31704D01*
X88522Y28977D01*
X88520Y28977D01*
X87220D01*
X87218Y28977D01*
X86089Y31704D01*
X84085Y34315D01*
X81474Y36319D01*
X78433Y37578D01*
X75170Y38008D01*
X71907Y37578D01*
X68866Y36319D01*
X66255Y34315D01*
X64251Y31704D01*
X62992Y28663D01*
X62562Y25400D01*
X62992Y22137D01*
X63998Y19708D01*
X63250Y18438D01*
X58140D01*
X46118Y30460D01*
Y114527D01*
X47868Y116808D01*
X48277Y117051D01*
X49232Y117240D01*
X90842Y75630D01*
D02*
G37*
G36*
X530000Y0D02*
X530000Y0D01*
X403752D01*
X403499Y1270D01*
X404051Y1499D01*
X405931Y2941D01*
X410450Y7460D01*
X411892Y9340D01*
X412799Y11529D01*
X413108Y13879D01*
Y15582D01*
X414285Y16485D01*
X416289Y19096D01*
X417418Y21823D01*
X417420Y21823D01*
X418720D01*
X418722Y21823D01*
X419851Y19096D01*
X421855Y16485D01*
X424466Y14481D01*
X427507Y13222D01*
X430770Y12792D01*
X434033Y13222D01*
X437074Y14481D01*
X439685Y16485D01*
X441689Y19096D01*
X442400Y20813D01*
X443670Y20561D01*
Y12900D01*
X468670D01*
Y37900D01*
X446337D01*
X445851Y39073D01*
X471069Y64291D01*
X480009D01*
X482359Y64601D01*
X484548Y65507D01*
X486428Y66950D01*
X515929Y96451D01*
X517372Y98331D01*
X518278Y100521D01*
X518588Y102870D01*
Y255270D01*
X518588Y255270D01*
X518279Y257619D01*
X517372Y259809D01*
X515929Y261689D01*
X515929Y261689D01*
X494339Y283279D01*
X492459Y284722D01*
X490270Y285628D01*
X487920Y285938D01*
X322820D01*
X320471Y285628D01*
X318281Y284722D01*
X316401Y283279D01*
X307351Y274229D01*
X305909Y272349D01*
X305002Y270159D01*
X304692Y267810D01*
Y251307D01*
X304559Y251236D01*
X302046Y249174D01*
X299984Y246661D01*
X298452Y243795D01*
X297509Y240685D01*
X297190Y237450D01*
X297509Y234216D01*
X298452Y231105D01*
X299984Y228239D01*
X302046Y225726D01*
X304559Y223664D01*
X307425Y222132D01*
X310536Y221189D01*
X313770Y220870D01*
X317005Y221189D01*
X320115Y222132D01*
X322981Y223664D01*
X325494Y225726D01*
X327556Y228239D01*
X328822Y230608D01*
X330218D01*
X331484Y228239D01*
X333546Y225726D01*
X336059Y223664D01*
X338925Y222132D01*
X342035Y221189D01*
X345270Y220870D01*
X348505Y221189D01*
X351615Y222132D01*
X354481Y223664D01*
X356994Y225726D01*
X359056Y228239D01*
X360322Y230608D01*
X361718D01*
X362984Y228239D01*
X365046Y225726D01*
X367559Y223664D01*
X370425Y222132D01*
X373535Y221189D01*
X376770Y220870D01*
X380005Y221189D01*
X383115Y222132D01*
X385981Y223664D01*
X388494Y225726D01*
X390556Y228239D01*
X391822Y230608D01*
X393218D01*
X394484Y228239D01*
X396546Y225726D01*
X399059Y223664D01*
X401925Y222132D01*
X403195Y221747D01*
X407467Y217476D01*
X406748Y216399D01*
X405180Y217048D01*
X402830Y217358D01*
X289930D01*
X289930Y217358D01*
X287581Y217048D01*
X285391Y216141D01*
X283511Y214699D01*
X269411Y200599D01*
X267969Y198719D01*
X267062Y196529D01*
X266752Y194180D01*
Y71929D01*
X265483Y71845D01*
X265148Y74383D01*
X263889Y77424D01*
X262048Y79823D01*
Y142240D01*
X261738Y144590D01*
X260832Y146779D01*
X259389Y148659D01*
X241628Y166420D01*
X242154Y167690D01*
X248520D01*
Y200690D01*
X241010D01*
X240788Y202370D01*
X239881Y204559D01*
X238439Y206439D01*
X238439Y206439D01*
X232719Y212159D01*
X230839Y213601D01*
X228650Y214508D01*
X226300Y214818D01*
X175500D01*
X175500Y214818D01*
X173151Y214508D01*
X170961Y213601D01*
X169081Y212159D01*
X169081Y212159D01*
X162601Y205679D01*
X161159Y203799D01*
X160252Y201609D01*
X159942Y199260D01*
Y198047D01*
X159809Y197976D01*
X157296Y195914D01*
X155234Y193401D01*
X153702Y190535D01*
X153171Y188783D01*
X151844D01*
X151482Y189974D01*
X150086Y192586D01*
X148206Y194876D01*
X145916Y196756D01*
X143303Y198152D01*
X141520Y198694D01*
Y184190D01*
X133520D01*
Y198693D01*
X131737Y198152D01*
X129124Y196756D01*
X126834Y194876D01*
X124954Y192586D01*
X123558Y189974D01*
X123196Y188783D01*
X121869Y188783D01*
X121338Y190535D01*
X119806Y193401D01*
X117744Y195914D01*
X115231Y197976D01*
X112365Y199508D01*
X109255Y200451D01*
X106020Y200770D01*
X102786Y200451D01*
X99675Y199508D01*
X96809Y197976D01*
X94296Y195914D01*
X92234Y193401D01*
X90968Y191032D01*
X89572D01*
X88306Y193401D01*
X86244Y195914D01*
X83731Y197976D01*
X80865Y199508D01*
X77755Y200451D01*
X74520Y200770D01*
X71286Y200451D01*
X68175Y199508D01*
X65309Y197976D01*
X63928Y196842D01*
X62658Y197443D01*
Y223570D01*
X63809Y224721D01*
X65252Y226601D01*
X65290Y226695D01*
X67008Y228412D01*
X76413D01*
X76484Y228279D01*
X78546Y225766D01*
X81059Y223704D01*
X83925Y222172D01*
X87036Y221229D01*
X90270Y220910D01*
X93505Y221229D01*
X96615Y222172D01*
X99481Y223704D01*
X101994Y225766D01*
X104056Y228279D01*
X105322Y230648D01*
X106718D01*
X107984Y228279D01*
X110046Y225766D01*
X112559Y223704D01*
X115425Y222172D01*
X118535Y221229D01*
X121770Y220910D01*
X125005Y221229D01*
X128115Y222172D01*
X130981Y223704D01*
X133494Y225766D01*
X135556Y228279D01*
X136822Y230648D01*
X138218D01*
X139484Y228279D01*
X141546Y225766D01*
X144059Y223704D01*
X146925Y222172D01*
X150035Y221229D01*
X153270Y220910D01*
X156505Y221229D01*
X159615Y222172D01*
X162481Y223704D01*
X164994Y225766D01*
X167056Y228279D01*
X168322Y230648D01*
X169718D01*
X170984Y228279D01*
X173046Y225766D01*
X175559Y223704D01*
X178425Y222172D01*
X181535Y221229D01*
X184770Y220910D01*
X188005Y221229D01*
X191115Y222172D01*
X193981Y223704D01*
X196494Y225766D01*
X198556Y228279D01*
X199822Y230648D01*
X201218D01*
X202484Y228279D01*
X204546Y225766D01*
X207059Y223704D01*
X209925Y222172D01*
X213036Y221229D01*
X216270Y220910D01*
X219505Y221229D01*
X222615Y222172D01*
X225481Y223704D01*
X227994Y225766D01*
X230056Y228279D01*
X231588Y231145D01*
X232531Y234256D01*
X232850Y237490D01*
X232531Y240725D01*
X231588Y243835D01*
X230056Y246701D01*
X227994Y249214D01*
X225481Y251276D01*
X222615Y252808D01*
X219505Y253751D01*
X216270Y254070D01*
X213036Y253751D01*
X209925Y252808D01*
X207059Y251276D01*
X204546Y249214D01*
X202484Y246701D01*
X201218Y244332D01*
X199822D01*
X198556Y246701D01*
X196494Y249214D01*
X193981Y251276D01*
X193848Y251347D01*
Y257430D01*
X193538Y259780D01*
X192631Y261969D01*
X191189Y263849D01*
X173029Y282009D01*
X171149Y283451D01*
X168960Y284358D01*
X166610Y284668D01*
X44690D01*
X42341Y284358D01*
X40151Y283451D01*
X38271Y282009D01*
X14141Y257879D01*
X12699Y255999D01*
X11792Y253810D01*
X11482Y251460D01*
Y200660D01*
X11792Y198311D01*
X12699Y196121D01*
X14141Y194241D01*
X27962Y180420D01*
Y131933D01*
X26121Y129534D01*
X24862Y126493D01*
X24432Y123230D01*
X24862Y119967D01*
X26121Y116926D01*
X27962Y114527D01*
Y26700D01*
X28272Y24351D01*
X29179Y22161D01*
X30621Y20281D01*
X47961Y2941D01*
X47961Y2941D01*
X49841Y1499D01*
X50393Y1270D01*
X50141Y0D01*
X0D01*
Y289560D01*
X0Y289560D01*
X530000D01*
Y0D01*
D02*
G37*
G36*
X291722Y21823D02*
X292851Y19096D01*
X294692Y16697D01*
Y16510D01*
X295002Y14161D01*
X295909Y11971D01*
X297351Y10091D01*
X304501Y2941D01*
X304501Y2941D01*
X306381Y1499D01*
X306933Y1270D01*
X306681Y0D01*
X147990D01*
X147737Y1270D01*
X148289Y1499D01*
X150169Y2941D01*
X157789Y10561D01*
X159232Y12441D01*
X160138Y14631D01*
X160403Y16638D01*
X162289Y19096D01*
X163418Y21823D01*
X163420Y21823D01*
X164720D01*
X164722Y21823D01*
X165851Y19096D01*
X167855Y16485D01*
X170466Y14481D01*
X173507Y13222D01*
X176770Y12792D01*
X180033Y13222D01*
X183074Y14481D01*
X185685Y16485D01*
X187689Y19096D01*
X188818Y21823D01*
X188820Y21823D01*
X190120D01*
X190122Y21823D01*
X191251Y19096D01*
X193255Y16485D01*
X195866Y14481D01*
X198907Y13222D01*
X202170Y12792D01*
X205433Y13222D01*
X208474Y14481D01*
X211085Y16485D01*
X213089Y19096D01*
X214218Y21823D01*
X214220Y21823D01*
X215520D01*
X215522Y21823D01*
X216651Y19096D01*
X218655Y16485D01*
X221266Y14481D01*
X224307Y13222D01*
X227570Y12792D01*
X230833Y13222D01*
X233874Y14481D01*
X236485Y16485D01*
X238489Y19096D01*
X239618Y21823D01*
X239620Y21823D01*
X240920D01*
X240922Y21823D01*
X242051Y19096D01*
X244055Y16485D01*
X246666Y14481D01*
X249707Y13222D01*
X252970Y12792D01*
X256233Y13222D01*
X259274Y14481D01*
X261885Y16485D01*
X263889Y19096D01*
X265018Y21823D01*
X265020Y21823D01*
X266320D01*
X266322Y21823D01*
X267451Y19096D01*
X269455Y16485D01*
X272066Y14481D01*
X275107Y13222D01*
X278370Y12792D01*
X281633Y13222D01*
X284674Y14481D01*
X287285Y16485D01*
X289289Y19096D01*
X290418Y21823D01*
X290420Y21823D01*
X291720D01*
X291722Y21823D01*
D02*
G37*
%LPC*%
G36*
X147693Y153480D02*
X141400D01*
Y147187D01*
X142968Y147837D01*
X145274Y149606D01*
X147044Y151912D01*
X147693Y153480D01*
D02*
G37*
G36*
X133400D02*
X127107D01*
X127757Y151912D01*
X129526Y149606D01*
X131833Y147837D01*
X133400Y147187D01*
Y153480D01*
D02*
G37*
G36*
X154520Y104273D02*
Y97980D01*
X160813D01*
X160163Y99548D01*
X158394Y101854D01*
X156088Y103624D01*
X154520Y104273D01*
D02*
G37*
G36*
X146520D02*
X144952Y103624D01*
X142646Y101854D01*
X140877Y99548D01*
X140227Y97980D01*
X146520D01*
Y104273D01*
D02*
G37*
G36*
X160813Y89980D02*
X154520D01*
Y83687D01*
X156088Y84337D01*
X158394Y86106D01*
X160163Y88412D01*
X160813Y89980D01*
D02*
G37*
G36*
X371313Y153480D02*
X365020D01*
Y147187D01*
X366588Y147837D01*
X368894Y149606D01*
X370663Y151912D01*
X371313Y153480D01*
D02*
G37*
G36*
X357020D02*
X350727D01*
X351377Y151912D01*
X353146Y149606D01*
X355452Y147837D01*
X357020Y147187D01*
Y153480D01*
D02*
G37*
G36*
X329360Y128590D02*
Y123380D01*
X334571D01*
X334130Y124443D01*
X332521Y126541D01*
X330423Y128150D01*
X329360Y128590D01*
D02*
G37*
G36*
X321360D02*
X320297Y128150D01*
X318200Y126541D01*
X316590Y124443D01*
X316150Y123380D01*
X321360D01*
Y128590D01*
D02*
G37*
G36*
X334571Y115380D02*
X329360D01*
Y110170D01*
X330423Y110610D01*
X332521Y112219D01*
X334130Y114317D01*
X334571Y115380D01*
D02*
G37*
G36*
X321360D02*
X316150D01*
X316590Y114317D01*
X318200Y112219D01*
X320297Y110610D01*
X321360Y110170D01*
Y115380D01*
D02*
G37*
G36*
X335400Y104020D02*
X329360D01*
Y97980D01*
X335400D01*
Y104020D01*
D02*
G37*
G36*
X378020Y104273D02*
Y97980D01*
X384313D01*
X383663Y99548D01*
X381894Y101854D01*
X379588Y103624D01*
X378020Y104273D01*
D02*
G37*
G36*
X370020D02*
X368452Y103624D01*
X366146Y101854D01*
X364377Y99548D01*
X363727Y97980D01*
X370020D01*
Y104273D01*
D02*
G37*
G36*
X321360Y104020D02*
X315320D01*
Y97980D01*
X321360D01*
Y104020D01*
D02*
G37*
G36*
X384313Y89980D02*
X378020D01*
Y83687D01*
X379588Y84337D01*
X381894Y86106D01*
X383663Y88412D01*
X384313Y89980D01*
D02*
G37*
G36*
X370020D02*
X363727D01*
X364377Y88412D01*
X366146Y86106D01*
X368452Y84337D01*
X370020Y83687D01*
Y89980D01*
D02*
G37*
%LPD*%
D10*
X275830Y194180D02*
X289930Y208280D01*
X275830Y27940D02*
Y194180D01*
Y27940D02*
X278370Y25400D01*
X289930Y208280D02*
X402830D01*
X424020Y184150D02*
Y187090D01*
X402830Y208280D02*
X424020Y187090D01*
X175500Y205740D02*
X226300D01*
X169020Y199260D02*
X175500Y205740D01*
X169020Y184190D02*
Y199260D01*
X232020Y184190D02*
Y200020D01*
X226300Y205740D02*
X232020Y200020D01*
X151370Y16980D02*
Y23506D01*
X143750Y9360D02*
X151370Y16980D01*
X124700Y9360D02*
X143750D01*
X54380D02*
X124700D01*
X125970Y10630D01*
Y25400D01*
X252970Y71120D02*
Y142240D01*
Y25400D02*
Y71120D01*
X325360D02*
X401160D01*
X424020Y93980D01*
X307580Y54610D02*
X343140D01*
X297420Y64770D02*
X307580Y54610D01*
X297420Y64770D02*
Y143510D01*
X37040Y26700D02*
X54380Y9360D01*
X37040Y26700D02*
Y123230D01*
X431672Y26302D02*
Y37732D01*
X467309Y73369D01*
X430770Y25400D02*
X431672Y26302D01*
X310920Y9360D02*
X379970D01*
X303770Y16510D02*
X310920Y9360D01*
X303770Y16510D02*
Y25400D01*
X379970Y9360D02*
X399512D01*
X379970D02*
Y25400D01*
X404031Y24061D02*
X405370Y25400D01*
X404031Y13879D02*
Y24061D01*
X399512Y9360D02*
X404031Y13879D01*
X343140Y54610D02*
X354570Y43180D01*
Y25400D02*
Y43180D01*
X106020Y108850D02*
X176770Y38100D01*
Y25400D02*
Y38100D01*
X106020Y108850D02*
Y184190D01*
X232020Y163190D02*
X252970Y142240D01*
X151370Y23506D02*
Y25400D01*
X378631Y24061D02*
X379970Y25400D01*
X99920Y26050D02*
Y79390D01*
Y26050D02*
X100570Y25400D01*
X63248Y237490D02*
X90270D01*
X57390Y231632D02*
X63248Y237490D01*
X57390Y231140D02*
Y231632D01*
X53580Y227330D02*
X57390Y231140D01*
X53580Y125730D02*
Y227330D01*
Y125730D02*
X99920Y79390D01*
X467309Y73369D02*
X480009D01*
X509510Y102870D01*
Y255270D01*
X487920Y276860D02*
X509510Y255270D01*
X322820Y276860D02*
X487920D01*
X313770Y267810D02*
X322820Y276860D01*
X313770Y237450D02*
Y267810D01*
X226920Y26050D02*
Y132730D01*
Y26050D02*
X227570Y25400D01*
X200520Y159130D02*
Y184190D01*
Y159130D02*
X226920Y132730D01*
X327702Y182332D02*
X329520Y184150D01*
X327702Y173792D02*
Y182332D01*
X297420Y143510D02*
X327702Y173792D01*
X404720Y26050D02*
Y34910D01*
Y26050D02*
X405370Y25400D01*
X404720Y34910D02*
X493000Y123190D01*
X166610Y275590D02*
X184770Y257430D01*
X44690Y275590D02*
X166610D01*
X20560Y251460D02*
X44690Y275590D01*
X325360Y93980D02*
X374020D01*
X325360D02*
Y119380D01*
X137520Y106980D02*
Y184190D01*
X361020Y157480D02*
Y184150D01*
Y106980D02*
Y157480D01*
X20560Y200660D02*
Y251460D01*
X37040Y123230D02*
Y184180D01*
X20560Y200660D02*
X37040Y184180D01*
X137520Y106980D02*
X150520Y93980D01*
X232020Y163190D02*
Y184190D01*
X169020Y125480D02*
Y184190D01*
Y125480D02*
X200520Y93980D01*
X361020Y106980D02*
X374020Y93980D01*
X455520Y125480D02*
Y158100D01*
X424020Y93980D02*
X455520Y125480D01*
X184770Y237490D02*
Y257430D01*
X121770Y237490D02*
Y253120D01*
X114540Y260350D02*
X121770Y253120D01*
X57390Y260350D02*
X114540D01*
X37040Y240000D02*
X57390Y260350D01*
X37040Y224830D02*
Y240000D01*
X455520Y158100D02*
Y184150D01*
X444740Y147320D02*
X455520Y158100D01*
X401560Y147320D02*
X444740D01*
X392520Y156360D02*
X401560Y147320D01*
X392520Y156360D02*
Y184150D01*
X428230Y209550D02*
X475220D01*
X408270Y229510D02*
X428230Y209550D01*
X408270Y229510D02*
Y237450D01*
X475220Y209550D02*
X493000Y191770D01*
Y123190D02*
Y191770D01*
Y224790D02*
Y247650D01*
X480300Y260350D02*
X493000Y247650D01*
X355840Y260350D02*
X480300D01*
X346606Y251116D02*
X355840Y260350D01*
X346606Y238786D02*
Y251116D01*
X345270Y237450D02*
X346606Y238786D01*
D11*
X200520Y93980D02*
D03*
X150520D02*
D03*
X424020D02*
D03*
X374020D02*
D03*
X430770Y25400D02*
D03*
X405370D02*
D03*
X379970D02*
D03*
X354570D02*
D03*
X329170D02*
D03*
X303770D02*
D03*
X278370D02*
D03*
X252970D02*
D03*
X227570D02*
D03*
X202170D02*
D03*
X176770D02*
D03*
X151370D02*
D03*
X125970D02*
D03*
X100570D02*
D03*
X75170D02*
D03*
X493000Y224790D02*
D03*
Y123190D02*
D03*
X37040Y224830D02*
D03*
Y123230D02*
D03*
X252970Y71120D02*
D03*
X325360D02*
D03*
X137400Y157480D02*
D03*
X361020D02*
D03*
D12*
X456170Y25400D02*
D03*
D13*
X455520Y184150D02*
D03*
X232020Y184190D02*
D03*
D14*
X424020Y184150D02*
D03*
X392520D02*
D03*
X361020D02*
D03*
X329520D02*
D03*
X298020D02*
D03*
X439770Y237450D02*
D03*
X408270D02*
D03*
X376770D02*
D03*
X345270D02*
D03*
X313770D02*
D03*
X200520Y184190D02*
D03*
X169020D02*
D03*
X137520D02*
D03*
X106020D02*
D03*
X74520D02*
D03*
X216270Y237490D02*
D03*
X184770D02*
D03*
X153270D02*
D03*
X121770D02*
D03*
X90270D02*
D03*
D15*
X325360Y93980D02*
D03*
D16*
Y119380D02*
D03*
M02*
